<?xml version="1.0" encoding="UTF-8"?>
<!DOCTYPE svg PUBLIC "-//W3C//DTD SVG 1.1//EN" "http://www.w3.org/Graphics/SVG/1.1/DTD/svg11.dtd">
<svg xmlns="http://www.w3.org/2000/svg" version="1.1" width="100px" height="100px" style="shape-rendering:geometricPrecision; text-rendering:geometricPrecision; image-rendering:optimizeQuality; fill-rule:evenodd; clip-rule:evenodd" xmlns:xlink="http://www.w3.org/1999/xlink">
<g><path style="opacity:0.936" fill="#fab004" d="M 99.5,31.5 C 99.5,34.8333 99.5,38.1667 99.5,41.5C 98.0226,43.807 96.0226,45.6403 93.5,47C 78.5,47.6667 63.5,47.6667 48.5,47C 41.4505,42.5131 39.6172,36.3465 43,28.5C 46.7063,26.0752 49.5397,22.9085 51.5,19C 54.7699,18.0052 58.1033,17.1719 61.5,16.5C 66.2373,9.94594 72.5707,7.77928 80.5,10C 87.9633,12.4036 91.9633,17.5703 92.5,25.5C 95.4933,26.8334 97.8266,28.8334 99.5,31.5 Z M 70.5,14.5 C 81.6749,13.3429 87.0082,18.3429 86.5,29.5C 94.9005,31.1707 96.5671,35.3373 91.5,42C 84.7427,43.1087 77.9094,43.6087 71,43.5C 63.7722,43.5895 56.6055,43.0895 49.5,42C 46.6061,39.0913 45.7728,35.5913 47,31.5C 48.6454,29.3382 50.8121,28.0049 53.5,27.5C 55.7358,21.1629 58.9024,20.8295 63,26.5C 64.2761,21.589 66.7761,17.589 70.5,14.5 Z"/></g>
<g><path style="opacity:0.988" fill="#fab004" d="M 99.5,71.5 C 99.5,73.8333 99.5,76.1667 99.5,78.5C 98.0283,80.1343 96.3617,81.6343 94.5,83C 64.5,83.6667 34.5,83.6667 4.5,83C 2.63834,81.6343 0.971672,80.1343 -0.5,78.5C -0.5,76.1667 -0.5,73.8333 -0.5,71.5C 1.5,71.5 3.5,71.5 5.5,71.5C 5.33339,54.1635 5.50006,36.8301 6,19.5C 6.5,17.6667 7.66667,16.5 9.5,16C 23.5,15.3333 37.5,15.3333 51.5,16C 50.5,17 49.5,18 48.5,19C 36.8333,19.3333 25.1667,19.6667 13.5,20C 12.5838,20.3742 11.7504,20.8742 11,21.5C 9.3658,36.7406 9.03247,52.0739 10,67.5C 10.5,69.3333 11.6667,70.5 13.5,71C 37.5,71.6667 61.5,71.6667 85.5,71C 87.3333,70.5 88.5,69.3333 89,67.5C 89.4994,61.8431 89.6661,56.1764 89.5,50.5C 90.8333,50.5 92.1667,50.5 93.5,50.5C 93.5,57.5 93.5,64.5 93.5,71.5C 95.5,71.5 97.5,71.5 99.5,71.5 Z M 5.5,75.5 C 34.8409,75.1668 64.1742,75.5002 93.5,76.5C 92.3349,77.5836 91.0016,78.4169 89.5,79C 62.8333,79.6667 36.1667,79.6667 9.5,79C 7.08981,78.9428 5.75648,77.7761 5.5,75.5 Z"/></g>
</svg>
