<?xml version="1.0" encoding="UTF-8"?>
<!DOCTYPE svg PUBLIC "-//W3C//DTD SVG 1.1//EN" "http://www.w3.org/Graphics/SVG/1.1/DTD/svg11.dtd">
<svg xmlns="http://www.w3.org/2000/svg" version="1.1" width="100px" height="100px" style="shape-rendering:geometricPrecision; text-rendering:geometricPrecision; image-rendering:optimizeQuality; fill-rule:evenodd; clip-rule:evenodd" xmlns:xlink="http://www.w3.org/1999/xlink">
<g><path style="opacity:0.889" fill="#faaf04" d="M 39.5,15.5 C 42.7766,15.2161 45.9433,15.5495 49,16.5C 49.6667,38.1667 49.6667,59.8333 49,81.5C 46.6941,83.8881 43.8608,84.8881 40.5,84.5C 38.8333,84.3333 37.1667,84.1667 35.5,84C 30.0453,81.7651 24.8787,78.9317 20,75.5C 18.2503,72.7536 17.2503,69.7536 17,66.5C 13.2966,63.7569 11.7966,60.0903 12.5,55.5C 12.3196,52.4205 12.9862,49.5871 14.5,47C 12.9902,39.5131 15.4902,33.6797 22,29.5C 23.8999,22.7862 28.3999,19.2862 35.5,19C 36.7305,17.5952 38.0639,16.4286 39.5,15.5 Z M 41.5,20.5 C 42.5,20.5 43.5,20.5 44.5,20.5C 44.5,25.5 44.5,30.5 44.5,35.5C 41.4824,35.7038 38.4824,36.0371 35.5,36.5C 35.8003,33.7309 36.8003,31.2309 38.5,29C 37.5225,26.323 35.5225,24.9897 32.5,25C 36.3251,24.9779 39.3251,23.4779 41.5,20.5 Z M 30.5,25.5 C 32.4071,29.8387 33.4071,34.5053 33.5,39.5C 37.1788,39.2756 40.8455,38.9422 44.5,38.5C 44.6633,40.8568 44.4966,43.1902 44,45.5C 43.3261,44.4216 42.3261,43.7549 41,43.5C 36.1827,45.947 31.016,47.2803 25.5,47.5C 25.3342,42.8215 25.5008,38.1548 26,33.5C 26.7384,30.3515 28.2384,27.6848 30.5,25.5 Z M 21.5,35.5 C 23.4417,40.0557 24.1083,45.0557 23.5,50.5C 26.1441,50.1601 28.4775,50.8267 30.5,52.5C 31.2508,51.624 31.7508,50.624 32,49.5C 32.2189,50.938 32.7189,52.2713 33.5,53.5C 34.1872,51.4453 35.3539,49.7786 37,48.5C 39.3975,51.0544 41.7309,51.0544 44,48.5C 44.6667,51.5 44.6667,54.5 44,57.5C 43.2613,56.4258 42.2613,55.7591 41,55.5C 36.8673,57.9668 32.3673,59.3001 27.5,59.5C 27.6659,64.5111 27.4993,69.5111 27,74.5C 24.6623,72.8428 23.1623,70.6761 22.5,68C 23.4181,65.9135 24.0847,63.7468 24.5,61.5C 17.8481,58.6988 16.1814,54.0321 19.5,47.5C 18.562,43.2474 19.2287,39.2474 21.5,35.5 Z M 30.5,61.5 C 34.0958,61.1533 37.4291,61.82 40.5,63.5C 42.0293,63.4712 43.196,62.8045 44,61.5C 44.9503,67.6742 44.617,73.6742 43,79.5C 42,74.1667 41,74.1667 40,79.5C 37.5195,78.2242 35.3528,75.8908 33.5,72.5C 32.2011,73.09 31.3678,74.09 31,75.5C 30.5008,70.8452 30.3342,66.1785 30.5,61.5 Z"/></g>
<g><path style="opacity:0.909" fill="#fab004" d="M 51.5,15.5 C 54.5184,15.3354 57.5184,15.502 60.5,16C 64.6042,18.4467 68.9375,20.4467 73.5,22C 76.4805,26.6469 79.9805,30.8135 84,34.5C 84.8624,36.087 85.5291,37.7536 86,39.5C 86.244,44.9586 87.0774,50.2919 88.5,55.5C 88.4057,57.9228 87.9057,60.2562 87,62.5C 84.2457,66.0789 82.2457,70.0789 81,74.5C 79.8333,75.6667 78.6667,76.8333 77.5,78C 73.1557,79.4097 69.1557,81.4097 65.5,84C 61.8333,84.6667 58.1667,84.6667 54.5,84C 52.4593,82.7582 51.2927,80.9249 51,78.5C 50.1791,57.4271 50.3458,36.4271 51.5,15.5 Z M 78.5,36.5 C 74.9226,34.9549 72.5893,36.1216 71.5,40C 74.2295,43.9968 75.2295,48.4968 74.5,53.5C 68.1667,52.8333 61.8333,52.1667 55.5,51.5C 55.5,48.8333 55.5,46.1667 55.5,43.5C 56.5,43.5 57.5,43.5 58.5,43.5C 58.297,41.3618 57.297,39.6951 55.5,38.5C 57.297,37.3049 58.297,35.6382 58.5,33.5C 57.5,33.5 56.5,33.5 55.5,33.5C 55.5,29.1667 55.5,24.8333 55.5,20.5C 58.617,20.6423 61.117,21.9756 63,24.5C 63.6667,30.1667 63.6667,35.8333 63,41.5C 60.4495,43.4949 59.9495,45.8283 61.5,48.5C 67.966,49.2014 69.6327,46.868 66.5,41.5C 65.5046,35.8722 65.1712,30.2055 65.5,24.5C 66.5,24.5 67.5,24.5 68.5,24.5C 69.3655,27.1666 70.3655,29.8332 71.5,32.5C 72.086,32.2907 72.586,31.9574 73,31.5C 74.6487,33.4755 76.4821,35.1422 78.5,36.5 Z M 78.5,36.5 C 79.9663,37.347 80.7996,38.6803 81,40.5C 81.2105,45.7782 82.0438,50.9449 83.5,56C 82.3076,58.7574 80.9742,61.2574 79.5,63.5C 78.1667,63.5 76.8333,63.5 75.5,63.5C 75.7863,66.2773 76.1197,69.1106 76.5,72C 73.6235,74.437 70.2902,75.7703 66.5,76C 65.1073,78.6833 63.7739,78.85 62.5,76.5C 61.7492,77.376 61.2492,78.376 61,79.5C 60.3678,77.4687 59.2012,75.802 57.5,74.5C 56.914,74.7093 56.414,75.0426 56,75.5C 55.5014,71.8484 55.3347,68.1817 55.5,64.5C 58.7861,63.7929 62.1194,63.4595 65.5,63.5C 65.0198,66.0046 64.0198,68.3379 62.5,70.5C 65.1667,75.8333 67.8333,75.8333 70.5,70.5C 68.02,67.6391 67.02,64.3058 67.5,60.5C 63.7604,60.2408 60.0938,60.5741 56.5,61.5C 55.5258,59.2573 55.1924,56.924 55.5,54.5C 62.4615,55.542 69.4615,56.2087 76.5,56.5C 76.2053,49.6333 76.872,42.9666 78.5,36.5 Z"/></g>
<g><path style="opacity:0.493" fill="#f9b104" d="M 29.5,34.5 C 31.4646,34.9483 31.7979,35.9483 30.5,37.5C 29.6143,36.675 29.281,35.675 29.5,34.5 Z"/></g>
<g><path style="opacity:0.692" fill="#fbaa02" d="M 28.5,39.5 C 31.9571,39.6672 32.2904,40.6672 29.5,42.5C 28.6143,41.675 28.281,40.675 28.5,39.5 Z"/></g>
<g><path style="opacity:0.631" fill="#fcba02" d="M 70.5,59.5 C 72.4646,59.9483 72.7979,60.9483 71.5,62.5C 70.6143,61.675 70.281,60.675 70.5,59.5 Z"/></g>
</svg>
